<?xml version="1.0" standalone="no"?>
<!DOCTYPE svg PUBLIC "-//W3C//DTD SVG 20010904//EN"
 "http://www.w3.org/TR/2001/REC-SVG-20010904/DTD/svg10.dtd">
<svg version="1.0" xmlns="http://www.w3.org/2000/svg"
 width="256.000000pt" height="256.000000pt" viewBox="0 0 256.000000 256.000000"
 preserveAspectRatio="xMidYMid meet">

<g transform="translate(0.000000,256.000000) scale(0.100000,-0.100000)"
fill="#ffffff" stroke="none">
<path d="M484 2346 c-80 -35 -98 -131 -35 -188 25 -22 41 -28 77 -28 39 0 51
5 80 34 29 29 34 41 34 79 0 55 -27 92 -78 107 -45 12 -40 12 -78 -4z"/>
<path d="M977 2353 c-4 -3 -7 -386 -7 -850 l0 -843 80 0 80 0 0 117 0 116 29
-40 c121 -167 365 -242 595 -183 164 42 298 148 369 292 121 245 77 558 -103
738 -76 76 -159 123 -266 150 -207 53 -416 1 -551 -136 -35 -35 -65 -64 -68
-64 -3 0 -5 160 -5 355 l0 355 -73 0 c-41 0 -77 -3 -80 -7z m705 -634 c252
-54 398 -312 333 -588 -54 -227 -265 -368 -500 -334 -254 36 -416 269 -376
541 39 270 277 437 543 381z"/>
<path d="M448 1178 c-3 -632 -4 -686 -21 -723 -25 -55 -52 -82 -104 -101 -60
-23 -159 -14 -221 21 -25 14 -46 24 -46 23 -1 -2 -14 -29 -29 -61 l-27 -57 33
-20 c128 -80 350 -70 459 20 53 44 98 141 109 237 5 43 8 362 7 708 l-3 630
-77 3 -77 3 -3 -683z"/>
<path d="M2403 889 c-128 -36 -99 -240 34 -239 40 0 74 20 100 59 63 94 -24
211 -134 180z"/>
</g>
</svg>
