<svg xmlns="http://www.w3.org/2000/svg" viewBox="0 0 500 175.95"><g id="Camada_2" data-name="Camada 2"><g id="Camada_1-2" data-name="Camada 1"><path d="M0,136.55l3.76-8.13c3.17,2.71,7.38,4.07,12.35,4.07,8.43,0,13.1-5.12,13.1-14.91V32.52H39.9v85.06c0,14.61-8.13,24.09-23.19,24.09C10.39,141.67,3.91,140,0,136.55Zm26.8-129A7.71,7.71,0,0,1,34.63,0a7.6,7.6,0,0,1,7.83,7.38,7.83,7.83,0,0,1-15.66.15Z" fill="#fff"></path><path d="M56.46,72.12c0-23.49,17.16-40.2,40.34-40.2S137,48.63,137,72.12s-17,40.35-40.2,40.35S56.46,95.6,56.46,72.12Zm69.7,0c0-18.52-12.49-30.87-29.36-30.87S67.3,53.6,67.3,72.12,79.94,103,96.8,103,126.16,90.63,126.16,72.12Z" fill="#fff"></path><path d="M233.81,72.12c0,23.93-16.86,40.35-39.45,40.35-13.1,0-24.09-5.73-30.56-16.42v15.66H153.56V0h10.69V47.58c6.63-10.24,17.47-15.66,30.11-15.66C217,31.92,233.81,48.18,233.81,72.12Zm-10.69,0c0-18.52-12.8-30.87-29.51-30.87-16.86,0-29.51,12.35-29.51,30.87S176.75,103,193.61,103C210.32,103,223.12,90.63,223.12,72.12Z" fill="#fff"></path><path d="M337.53,72.12c0,23.93-16.86,40.35-39.45,40.35-13.1,0-24.09-5.73-30.56-16.42v15.66H257.28V0H268V47.58c6.63-10.24,17.47-15.66,30.11-15.66C320.67,31.92,337.53,48.18,337.53,72.12Zm-10.69,0c0-18.52-12.8-30.87-29.51-30.87S267.82,53.6,267.82,72.12,280.47,103,297.33,103,326.84,90.63,326.84,72.12Z" fill="#fff"></path><path d="M423,75.43H356.8C358,92,370.65,103,388,103c9.64,0,18.22-3.46,24.24-10.39l6,6.93c-7.07,8.43-18.06,13-30.56,13-24.69,0-41.55-16.87-41.55-40.35s16.41-40.2,38.69-40.2,38.39,16.41,38.39,40.2C423.19,73,423,74.22,423,75.43Zm-66.24-8H413C411.6,51.94,400.31,41.1,384.8,41.1S358.15,51.94,356.8,67.45Z" fill="#fff"></path><path d="M479.65,31.92V42.31c-.91,0-1.81-.15-2.56-.15-16.57,0-26.65,10.53-26.65,29.2v40.35H439.75V32.52H450V48C455,37.49,465,31.92,479.65,31.92Z" fill="#fff"></path><path d="M483.89,104.18a8,8,0,0,1,8-8.13,8.1,8.1,0,0,1,8.13,8.13,8.23,8.23,0,0,1-8.13,8.29A8.11,8.11,0,0,1,483.89,104.18Z" fill="#fff"></path><path d="M274,161.38a8,8,0,0,1-8.18,8.41,7.41,7.41,0,0,1-6.8-4v3.9h-1.52V146.11H259v10.76a7.42,7.42,0,0,1,6.73-3.9A8,8,0,0,1,274,161.38Zm-1.58,0a6.6,6.6,0,0,0-6.7-7c-3.81,0-6.67,2.82-6.67,7s2.86,7,6.67,7A6.6,6.6,0,0,0,272.37,161.38Z" fill="#fff"></path><path d="M296.3,153.09l-8.5,18.83c-1.33,3-3,4-5.18,4a5.29,5.29,0,0,1-3.84-1.5l.8-1.2a4,4,0,0,0,3.08,1.3c1.52,0,2.63-.7,3.65-3l.88-2-7.45-16.51h1.68l6.63,14.82,6.63-14.82Z" fill="#fff"></path><path d="M331.38,163.41H318.5l-2.83,6.25h-1.74l10.22-22.22h1.62L336,169.66h-1.75Zm-.6-1.37-5.84-12.82L319.13,162Z" fill="#fff"></path><path d="M361.22,147.44l-9.9,22.22H349.7l-9.9-22.22h1.78l9,20.13,9-20.13Z" fill="#fff"></path><path d="M382.49,163.41H369.61l-2.83,6.25H365l10.22-22.22h1.62l10.22,22.22h-1.75Zm-.6-1.37-5.84-12.82L370.24,162Z" fill="#fff"></path><path d="M413.83,147.44v22.22h-1.34l-15.14-19.3v19.3h-1.61V147.44h1.36l15.11,19.3v-19.3Z" fill="#fff"></path><path d="M430.43,148.9h-8v-1.46h17.61v1.46h-8v20.76h-1.62Z" fill="#fff"></path><path d="M448.66,147.44h1.61v22.22h-1.61Z" fill="#fff"></path></g></g></svg>